<svg width="48" height="48" viewBox="0 0 48 48" fill="none" xmlns="http://www.w3.org/2000/svg">
<g clip-path="url(#clip0_2404_2629)">
<path d="M20 14C20 12.8954 20.8954 12 22 12H26C27.1046 12 28 12.8954 28 14V46C28 47.1046 27.1046 48 26 48H22C20.8954 48 20 47.1046 20 46V14Z" fill="#3D3D3D"/>
<path d="M10.8696 18.6956L22.3359 1.49613C23.1275 0.308663 24.8724 0.308663 25.6641 1.49613L37.1304 18.6956C38.1444 20.2166 36.7547 22.1887 34.9812 21.7453L24.4851 19.1212C24.1666 19.0416 23.8334 19.0416 23.5149 19.1212L13.0187 21.7453C11.2453 22.1887 9.85555 20.2166 10.8696 18.6956Z" fill="#3D3D3D"/>
</g>
<defs>
<clipPath id="clip0_2404_2629">
<rect width="48" height="48" fill="white"/>
</clipPath>
</defs>
</svg>
