<svg width="40" height="40" viewBox="0 0 40 40" fill="none" xmlns="http://www.w3.org/2000/svg">
<path d="M27.0065 29.7433C24.3815 31.7845 21.0827 33 17.5 33C8.93959 33 2 26.0604 2 17.5C2 8.93959 8.93959 2 17.5 2C26.0604 2 33 8.93959 33 17.5C33 21.0827 31.7845 24.3815 29.7433 27.0065L36.5268 32.4979C37.8487 33.568 37.9526 35.5474 36.75 36.75C35.5474 37.9526 33.568 37.8487 32.4979 36.5268L27.0065 29.7433ZM29 17.5C29 11.1487 23.8513 6 17.5 6C11.1487 6 6 11.1487 6 17.5C6 23.8513 11.1487 29 17.5 29C23.8513 29 29 23.8513 29 17.5Z" fill="#23262D"/>
</svg>
