<svg width="36" height="36" viewBox="0 0 36 36" fill="none" xmlns="http://www.w3.org/2000/svg">
<rect width="36" height="36" rx="18" fill="#3467D5"/>
<path d="M11.75 8.75C11.75 8.33579 12.0858 8 12.5 8H15.5V26.75C15.5 27.1642 15.1642 27.5 14.75 27.5H12.5C12.0858 27.5 11.75 27.1642 11.75 26.75V8.75Z" fill="white"/>
<path d="M15.5 8H19.25V11.75H15.5L15.5 8Z" fill="white"/>
<path d="M15.5 17.75H19.25V21.5H15.5V17.75Z" fill="white"/>
<path d="M26 14.75C26 18.4779 22.9779 21.5 19.25 21.5V17.75C20.9069 17.75 22.25 16.4069 22.25 14.75C22.25 13.0931 20.9069 11.75 19.25 11.75V8C22.9779 8 26 11.0221 26 14.75Z" fill="white"/>
</svg>
