<svg width="40" height="40" viewBox="0 0 40 40" fill="none" xmlns="http://www.w3.org/2000/svg">
<path d="M10.0164 21.097L6.12435 17.8536C5.10809 17.0067 4.57627 15.7122 4.70369 14.3954L5.86551 2.38996C5.94181 1.60155 6.60439 1 7.39648 1C8.27108 1 8.96968 1.72831 8.93327 2.60215L8.52708 12.3507C8.51007 12.7589 8.68847 13.1508 9.00747 13.406C9.83097 14.0648 11.0535 13.5038 11.0911 12.4499L11.4465 2.49905C11.4764 1.66263 12.1631 1 13 1C13.837 1 14.5237 1.66263 14.5536 2.49904L14.9089 12.4499C14.9466 13.5038 16.1691 14.0648 16.9926 13.406C17.3116 13.1508 17.49 12.7589 17.473 12.3507L17.0668 2.60215C17.0304 1.72831 17.729 1 18.6036 1C19.3957 1 20.0582 1.60155 20.1345 2.38996L21.2964 14.3954C21.4238 15.7122 20.892 17.0067 19.8757 17.8536L15.9837 21.097C15.6794 21.3505 15.5133 21.7332 15.5359 22.1285L16.3792 36.8859C16.4448 38.0335 15.5319 39 14.3825 39H11.6176C10.4682 39 9.55525 38.0334 9.62083 36.8859L10.4641 22.1285C10.4867 21.7332 10.3206 21.3505 10.0164 21.097Z" fill="#23262D"/>
<path d="M26.0795 20.2014L24.4585 18.8751C24.1683 18.6377 23.9987 18.2757 24.005 17.9009C24.1853 7.1104 29.215 2.59693 30.932 1.36771C31.296 1.10712 31.7342 1 32.1818 1C33.186 1 34 1.81403 34 2.81818V37C34 38.1046 33.1046 39 32 39H29.7656C28.5626 39 27.6318 37.9456 27.781 36.7519L28.9519 27.3854C29.293 24.6562 28.2082 21.9431 26.0795 20.2014Z" fill="#23262D"/>
</svg>
